<?xml version="1.0" encoding="utf-8"?>
<!-- Generator: Adobe Illustrator 23.0.4, SVG Export Plug-In . SVG Version: 6.00 Build 0)  -->
<svg version="1.1" xmlns="http://www.w3.org/2000/svg" xmlns:xlink="http://www.w3.org/1999/xlink" x="0px" y="0px"
	 viewBox="0 0 216 216" style="enable-background:new 0 0 216 216;" xml:space="preserve">
<style type="text/css">
	.st0{display:none;}
	.st1{stroke:#FFFFFF;stroke-miterlimit:10;}
	.st2{fill:none;}
	.st3{fill:#E2EDF5;}
	.st4{fill:#F2DCDF;}
	.st5{fill:#E6716C;}
	.st6{fill:#F2D7D9;}
	.st7{fill:#E3817D;}
	.st8{fill:#EFAFA3;}
	.st9{fill:#F2CECD;}
	.st10{fill:#DE8B8B;}
	.st11{fill:#F1C6C2;}
	.st12{fill:#E85143;}
	.st13{fill:#EFDADD;}
	.st14{fill:#E3E1E8;}
	.st15{fill:#D77271;}
	.st16{fill:none;stroke:#F2D7D9;stroke-width:0;stroke-linecap:round;stroke-linejoin:round;}
	.st17{fill:none;stroke:#F2CECD;stroke-width:0;stroke-linecap:round;stroke-linejoin:round;}
	.st18{fill:#EA6A65;}
	.st19{fill:#E0EAF2;}
	.st20{fill:none;stroke:#D77271;stroke-width:0;stroke-linecap:round;stroke-linejoin:round;}
	.st21{fill:none;stroke:#E3817D;stroke-width:0;stroke-linecap:round;stroke-linejoin:round;}
	.st22{fill:none;stroke:#EFAFA3;stroke-width:0;stroke-linecap:round;stroke-linejoin:round;}
	.st23{fill:none;stroke:#DE8B8B;stroke-width:0;stroke-linecap:round;stroke-linejoin:round;}
	.st24{fill:none;stroke:#F1C6C2;stroke-width:0;stroke-linecap:round;stroke-linejoin:round;}
	.st25{fill:none;stroke:#E6716C;stroke-width:0;stroke-linecap:round;stroke-linejoin:round;}
	.st26{fill:#E44B3E;}
	.st27{fill:#D1594F;}
	.st28{fill:#E65F53;}
	.st29{fill:none;stroke:#D1594F;stroke-width:0;stroke-linecap:round;stroke-linejoin:round;}
	.st30{fill:#EF5D5C;}
	.st31{fill:none;stroke:#EA6A65;stroke-width:0;stroke-linecap:round;stroke-linejoin:round;}
	.st32{fill:none;stroke:#F2DCDF;stroke-width:0;stroke-linecap:round;stroke-linejoin:round;}
	.st33{fill:#EF5250;}
	.st34{fill:none;stroke:#E65F53;stroke-width:0;stroke-linecap:round;stroke-linejoin:round;}
	.st35{fill:none;stroke:#E85143;stroke-width:0;stroke-linecap:round;stroke-linejoin:round;}
	.st36{fill:#F0413A;}
	.st37{fill:#F04946;}
	.st38{fill:#F24342;}
	.st39{fill:none;stroke:#EF5D5C;stroke-width:0;stroke-linecap:round;stroke-linejoin:round;}
	.st40{fill:#DEDBD8;}
	.st41{fill:none;stroke:#EFDADD;stroke-width:0;stroke-linecap:round;stroke-linejoin:round;}
	.st42{fill:#F13D3D;}
	.st43{fill:none;stroke:#EF5250;stroke-width:0;stroke-linecap:round;stroke-linejoin:round;}
	.st44{fill:none;stroke:#E3E1E8;stroke-width:0;stroke-linecap:round;stroke-linejoin:round;}
	.st45{fill:#F13A38;}
	.st46{fill:none;stroke:#F13A38;stroke-width:0;stroke-linecap:round;stroke-linejoin:round;}
	.st47{fill:#F13834;}
	.st48{fill:none;stroke:#F04946;stroke-width:0;stroke-linecap:round;stroke-linejoin:round;}
	.st49{fill:none;stroke:#F24342;stroke-width:0;stroke-linecap:round;stroke-linejoin:round;}
	.st50{fill:#F1332E;}
	.st51{fill:none;stroke:#F13D3D;stroke-width:0;stroke-linecap:round;stroke-linejoin:round;}
	.st52{display:inline;fill:none;}
	.st53{display:inline;fill:#E2EDF5;}
	.st54{display:inline;fill:#F2DCDF;}
	.st55{display:inline;fill:#E6716C;}
	.st56{display:inline;fill:#F2D7D9;}
	.st57{display:inline;fill:#E3817D;}
	.st58{display:inline;fill:#EFAFA3;}
	.st59{display:inline;fill:#F2CECD;}
	.st60{display:inline;fill:#DE8B8B;}
	.st61{display:inline;fill:#F1C6C2;}
	.st62{display:inline;fill:#E85143;}
	.st63{display:inline;fill:#EFDADD;}
	.st64{display:inline;fill:#E3E1E8;}
	.st65{display:inline;fill:#D77271;}
	.st66{display:inline;fill:none;stroke:#F2D7D9;stroke-width:0;stroke-linecap:round;stroke-linejoin:round;}
	.st67{display:inline;fill:none;stroke:#F2CECD;stroke-width:0;stroke-linecap:round;stroke-linejoin:round;}
	.st68{display:inline;fill:#EA6A65;}
	.st69{display:inline;fill:#E0EAF2;}
	.st70{display:inline;fill:none;stroke:#D77271;stroke-width:0;stroke-linecap:round;stroke-linejoin:round;}
	.st71{display:inline;fill:none;stroke:#E3817D;stroke-width:0;stroke-linecap:round;stroke-linejoin:round;}
	.st72{display:inline;fill:none;stroke:#EFAFA3;stroke-width:0;stroke-linecap:round;stroke-linejoin:round;}
	.st73{display:inline;fill:none;stroke:#DE8B8B;stroke-width:0;stroke-linecap:round;stroke-linejoin:round;}
	.st74{display:inline;fill:none;stroke:#F1C6C2;stroke-width:0;stroke-linecap:round;stroke-linejoin:round;}
	.st75{display:inline;fill:none;stroke:#E6716C;stroke-width:0;stroke-linecap:round;stroke-linejoin:round;}
	.st76{display:inline;fill:#E44B3E;}
	.st77{display:inline;fill:#D1594F;}
	.st78{display:inline;fill:#E65F53;}
	.st79{display:inline;fill:none;stroke:#D1594F;stroke-width:0;stroke-linecap:round;stroke-linejoin:round;}
	.st80{display:inline;fill:#EF5D5C;}
	.st81{display:inline;fill:none;stroke:#EA6A65;stroke-width:0;stroke-linecap:round;stroke-linejoin:round;}
	.st82{display:inline;fill:none;stroke:#F2DCDF;stroke-width:0;stroke-linecap:round;stroke-linejoin:round;}
	.st83{display:inline;fill:#EF5250;}
	.st84{display:inline;fill:none;stroke:#E65F53;stroke-width:0;stroke-linecap:round;stroke-linejoin:round;}
	.st85{display:inline;fill:none;stroke:#E85143;stroke-width:0;stroke-linecap:round;stroke-linejoin:round;}
	.st86{display:inline;fill:#F0413A;}
	.st87{display:inline;fill:#F04946;}
	.st88{display:inline;fill:#F24342;}
	.st89{display:inline;fill:none;stroke:#EF5D5C;stroke-width:0;stroke-linecap:round;stroke-linejoin:round;}
	.st90{display:inline;fill:#DEDBD8;}
	.st91{display:inline;fill:none;stroke:#EFDADD;stroke-width:0;stroke-linecap:round;stroke-linejoin:round;}
	.st92{display:inline;fill:#F13D3D;}
	.st93{display:inline;fill:none;stroke:#EF5250;stroke-width:0;stroke-linecap:round;stroke-linejoin:round;}
	.st94{display:inline;fill:none;stroke:#E3E1E8;stroke-width:0;stroke-linecap:round;stroke-linejoin:round;}
	.st95{display:inline;fill:#F13A38;}
	.st96{display:inline;fill:none;stroke:#F13A38;stroke-width:0;stroke-linecap:round;stroke-linejoin:round;}
	.st97{display:inline;fill:#F13834;}
	.st98{display:inline;fill:none;stroke:#F04946;stroke-width:0;stroke-linecap:round;stroke-linejoin:round;}
	.st99{display:inline;fill:none;stroke:#F24342;stroke-width:0;stroke-linecap:round;stroke-linejoin:round;}
	.st100{display:inline;fill:#F1332E;}
	.st101{display:inline;fill:none;stroke:#F13D3D;stroke-width:0;stroke-linecap:round;stroke-linejoin:round;}
	.st102{fill:#1A5B4B;}
	.st103{fill:none;stroke:#000000;stroke-width:2;stroke-miterlimit:10;}
	.st104{clip-path:url(#SVGID_2_);}
	.st105{fill:none;stroke:#000000;stroke-width:3;stroke-miterlimit:10;}
	.st106{fill:#FFFFFF;stroke:#000000;stroke-width:3;stroke-miterlimit:10;}
	.st107{fill:#FFFFFF;}
	.st108{fill:#48C162;}
	.st109{fill:#ED1C24;}
	.st110{fill:url(#SVGID_3_);}
	.st111{fill:#F7931E;}
</style>
<g id="Layer_1" class="st0">
</g>
<g id="Layer_2">
</g>
<g id="Layer_3">
</g>
<g id="Layer_4">
</g>
<g id="Layer_5">
	<g id="Layer_6">
		<g>
			<linearGradient id="SVGID_2_" gradientUnits="userSpaceOnUse" x1="19.6102" y1="105.9802" x2="177.9843" y2="105.9802">
				<stop  offset="0" style="stop-color:#F70F63"/>
				<stop  offset="0.1455" style="stop-color:#F93450"/>
				<stop  offset="0.3078" style="stop-color:#FB563E"/>
				<stop  offset="0.4738" style="stop-color:#FD7130"/>
				<stop  offset="0.6424" style="stop-color:#FE8426"/>
				<stop  offset="0.8156" style="stop-color:#FF8F20"/>
				<stop  offset="1" style="stop-color:#FF931E"/>
			</linearGradient>
			<path style="fill:url(#SVGID_2_);" d="M148,141c0,0-22.9-30.1-64.4-55c0,0-8.3-3-10.5-7.5c-2.2-4.4-7.5-8.3-7.5-8.3
				s-4.3-7.2-9.3-6.8S39.8,52,37,75.2c0,0-32.6,17.9-8.7,51.6c0,0,37.7-47.7,42.8-35.4c3.2,6.8-2.1,3.1-5.8,7.1
				c-3.7,3.9-27.5,22.2-32.1,34.3c0,0,9.7,15.6,19.9,14.6c0,0,25.3-47.5,32.2-41.1c3,5.6-7.6,7.1-15,18.9S59.8,148,59.8,148
				s-0.3,3.9,13.5,8.5c13.7,4.7,11.1,7.6,14,1c2.9-6.6-0.9-18.8,7.9-35.1c0,0,9.4-8.7,4.3,1.9c-5,10.6-8,22.2-6.2,27.4
				s-1.3,7.7-1.3,7.7s10.2,10.3,22.9,7c0,0,2.3-14.8-1.1-25.1c-3.4-10.2-0.8-19.7,5-17.8c5.8,2,3.9,7.7,0.1,14.8
				c0,0-2.1,1.2-0.1,26.2c0,0,3.5,4.7,12.6,3.2c0,0-2.6-20.9,0.4-25.2c3-4.3,10.4,28.2,10.4,28.2s5.9,1.1,11.1-1.6
				c5.2-2.7,8.9-1.3,12.3,2.5c0,0,0.9-10.3,6.3-13.3c1.5-2.6,3.3-3.8,2.3-11.1c0.2-4.5,1.2-6.2,1.2-6.2l-21.9-14.7
				c0,0-3.3-3,3.7-2.6c6.9,0.5,15.2,1.6,15.9,4.3c0.7,2.7,3.7,10.5,4.8,1.2c0.1-0.4,0.1-0.9,0.1-1.4l-2.3-11.6c0,0-0.2-6.1-6.8-4.5
				c-5.7,0.5-3.9-2.6-21.3,0c-6.1,0.7-3.7-6.2,2.9-5.6c6.6,0.5,18.8,1.5,24.6,3.5c0,0,0-10.5-5.2-12.4c0,0-1.1-4.2-7.5-2.7
				c-6.4,1.5-16.7-0.3-23.2,2.8s-5.4-4.9,0.3-6.1s22.9-2.7,24.6-2.1s0,0,0,0s-2.1-10.3-7.4-11.4c-3.3,5.7-10,3.3-6.4-2.4
				c0,0-14.3,0.4-18.2,2.8c-3.9,2.4-13.9,7.2-17.6,3.7s0.3-6,3.9-4.3c3.6,1.7,7.3-2.4,12.7-2.4c5.4,0,15.7-4.2,15.7-4.2
				s6.3-2.4-0.3-4.9c-6.6-2.5-7.3-9.9-7.3-9.9s-7.1-5.9-18.5-0.2s-10.2,6.1-14.9,11.4s-9-8-3-10.2c5.3-1.9,14.4-7.4,18.8-8.3
				c0.6-0.1,1.1-0.2,1.6-0.1c3.2,0.6-17.2-13.1-30.8-6.3S73.3,54.1,74.9,68.4c0,0-3.7,6.4,4.6,12.2C87.8,86.4,137,115.5,148,141z"/>
		</g>
		<g>
			<path class="st109" d="M62.2,45.2l2.8,4.9c0,0,0,0,0.1,0.1l4.7,2.5c0.1,0,0.1,0.1,0.1,0.2l-1.3,2.4c0,0.1-0.1,0.1-0.2,0.1
				l-4.7-2.5c0,0,0,0-0.1,0l-5.6,0.5c-0.1,0-0.1,0-0.1,0s0-0.1,0-0.2l1.5-2.9c0-0.1,0.1-0.1,0.1-0.1l1.8-0.2c0,0,0.1,0,0.1-0.1
				c0,0,0-0.1,0-0.1l-0.9-1.6c0,0,0-0.1,0-0.1l1.5-2.9c0,0,0.1-0.1,0.1-0.1C62.1,45.1,62.2,45.2,62.2,45.2z"/>
			<path class="st109" d="M74.6,45.5c-0.2,0.7-0.5,1.2-1,1.8s-1,0.9-1.6,1.2c-0.6,0.3-1.2,0.5-1.9,0.5s-1.3,0-1.9-0.2
				c-0.7-0.2-1.2-0.5-1.8-1l-0.3-0.2c-0.5-0.4-0.9-1-1.2-1.6c-0.3-0.6-0.5-1.2-0.5-1.9c-0.1-0.7,0-1.3,0.2-1.9
				c0.2-0.7,0.5-1.2,1-1.8c0.4-0.5,1-0.9,1.6-1.2c0.6-0.3,1.2-0.5,1.9-0.5c0.7-0.1,1.3,0,1.9,0.2c0.7,0.2,1.2,0.5,1.8,1l0.3,0.2
				c0.5,0.4,0.9,1,1.2,1.6c0.3,0.6,0.5,1.2,0.5,1.9C74.9,44.2,74.8,44.8,74.6,45.5z M70.9,42.1c-0.4-0.4-0.9-0.5-1.5-0.5
				c-0.6,0-1,0.3-1.4,0.7c-0.4,0.4-0.5,0.9-0.5,1.5c0,0.6,0.3,1,0.7,1.4l0.3,0.2c0.4,0.4,0.9,0.5,1.5,0.5c0.6,0,1-0.3,1.4-0.7
				c0.4-0.4,0.5-0.9,0.5-1.5c0-0.6-0.3-1-0.7-1.4L70.9,42.1z"/>
			<path class="st109" d="M78.3,30c0.1,0,0.1,0,0.2,0l3.4,5.1c0.3,0.5,0.5,1,0.6,1.6c0.1,0.5,0.1,1.1,0,1.6c-0.1,0.5-0.3,1-0.6,1.5
				c-0.3,0.5-0.7,0.9-1.2,1.2c-0.5,0.3-1,0.5-1.6,0.6c-0.5,0.1-1.1,0.1-1.6,0c-0.5-0.1-1-0.3-1.5-0.6c-0.5-0.3-0.9-0.7-1.2-1.2
				l-3.4-5.1c0-0.1,0-0.1,0-0.2l2.3-1.5c0.1,0,0.1,0,0.2,0l3.4,5.1c0.2,0.3,0.5,0.5,0.8,0.5c0.3,0.1,0.6,0,0.9-0.2
				c0.3-0.2,0.5-0.5,0.5-0.8c0.1-0.3,0-0.6-0.2-0.9L76,31.7c0-0.1,0-0.1,0-0.2L78.3,30z"/>
			<path class="st109" d="M84,27.5c0.1,0,0.1,0.1,0.1,0.2L83.4,30c0,0.1-0.1,0.1-0.2,0.1l-2.6-0.8c-0.1,0-0.1-0.1-0.1-0.2l0.7-2.3
				c0-0.1,0.1-0.1,0.2-0.1L84,27.5z M83.4,30.1C83.4,30.1,83.4,30,83.4,30.1l0.8-2.4c0,0,0-0.1,0-0.1c0,0-0.1-0.1-0.1-0.1l-2.6-0.8
				c-0.1,0-0.2,0-0.2,0.1l-0.7,2.3c0,0,0,0.1,0,0.1s0,0.1,0.1,0.1l2.5,0.8C83.3,30.1,83.3,30.1,83.4,30.1
				C83.3,30.1,83.3,30.1,83.4,30.1z M80.6,29.1l0.7-2.3c0-0.1,0.1-0.1,0.2-0.1l2.6,0.8c0,0,0.1,0,0.1,0.1s0,0.1,0,0.1L83.4,30
				c0,0.1-0.1,0.1-0.2,0.1l-2.5-0.8c0,0-0.1,0-0.1-0.1C80.6,29.1,80.6,29.1,80.6,29.1z"/>
			<path class="st109" d="M94.3,31.5c0.6,0.5,1.1,1,1.6,1.7c0.4,0.7,0.7,1.4,0.9,2.1c0,0,0,0.1,0,0.1c0,0,0,0-0.1,0.1L94,35.9
				c-0.1,0-0.1,0-0.1-0.1c-0.2-0.8-0.6-1.4-1.2-1.9c-0.6-0.5-1.3-0.7-2-0.7l0.6,3.1c0,0.1,0,0.1-0.1,0.1l-2.7,0.6
				c-0.1,0-0.1,0-0.1-0.1l-2.1-10.1c0-0.1,0-0.1,0.1-0.1l1.4-0.3l0,0L90,26c0.5-0.1,0.9-0.1,1.3,0c0.4,0.1,0.8,0.2,1.2,0.5
				c0.4,0.2,0.7,0.6,0.9,0.9c0.3,0.4,0.4,0.8,0.5,1.2c0.1,0.5,0.1,0.9,0,1.3c-0.1,0.4-0.2,0.7-0.4,1C93.9,31.2,94.1,31.3,94.3,31.5z
				 M91.1,29.8c0.1-0.2,0.1-0.4,0.1-0.6c0-0.2-0.2-0.4-0.3-0.5c-0.2-0.2-0.6-0.2-1-0.1c0,0-0.1,0-0.1,0c-0.1,0-0.1,0-0.1,0.1
				l0.3,1.5c0,0.1,0,0.1,0.1,0.1C90.6,30.2,90.9,30.1,91.1,29.8z"/>
			<path class="st109" d="M104.8,32.4c0.1,0,0.2,0.1,0.2,0.2l0,2.7c0,0.1,0,0.2-0.2,0.1l-6.2,0l-1.3,0c-0.1,0-0.2,0-0.2-0.2l0-10.2
				c0-0.1,0.1-0.2,0.2-0.2l2.9,0l4.6,0c0.1,0,0.2,0.1,0.2,0.2l0,2.7c0,0.1-0.1,0.1-0.2,0.1l-4.5,0c-0.1,0-0.1,0-0.2,0.2l0,0.8
				c0,0.1,0,0.1,0.2,0.1l2.1,0c0.1,0,0.1,0,0.1,0.2l0,2c0,0.1-0.1,0.1-0.2,0.1l-2.1,0c-0.1,0-0.1,0-0.2,0.2l0,0.8
				c0,0.1,0,0.1,0.2,0.1L104.8,32.4z"/>
			<path class="st109" d="M123,28.8c0.1,0,0.1,0.1,0.1,0.1l-1.7,5.9c-0.2,0.6-0.4,1.1-0.8,1.5c-0.4,0.4-0.8,0.8-1.3,1
				c-0.5,0.3-1,0.4-1.5,0.5c-0.6,0.1-1.1,0-1.7-0.1c-0.5-0.2-1-0.4-1.5-0.8c-0.4-0.3-0.8-0.8-1-1.2c-0.3-0.5-0.4-1-0.5-1.6
				c-0.1-0.6,0-1.1,0.1-1.7l1.7-5.9c0-0.1,0.1-0.1,0.1-0.1l2.7,0.8c0.1,0,0.1,0.1,0.1,0.1l-1.7,5.9c-0.1,0.3-0.1,0.7,0.1,1
				c0.2,0.3,0.4,0.5,0.7,0.6c0.3,0.1,0.6,0,0.9-0.1c0.3-0.2,0.5-0.4,0.6-0.7l1.7-5.9c0-0.1,0.1-0.1,0.1-0.1L123,28.8z"/>
			<path class="st109" d="M133.3,33.2C133.3,33.2,133.4,33.2,133.3,33.2c0.1,0.1,0.1,0.1,0.1,0.2c0,0,0,0.1,0,0.1l-4.1,9.2
				c0,0.1-0.1,0.1-0.1,0.1c-0.1,0-0.1,0-0.2,0l-2.6-1.2c-0.1,0-0.1-0.1-0.1-0.2l-0.3-4.5c0,0,0-0.1-0.1-0.1c0,0-0.1,0-0.1,0
				l-1.6,3.6c0,0-0.1,0.1-0.1,0.1s-0.1,0-0.2,0l-2.4-1.1c-0.1,0-0.1-0.1-0.1-0.1c0-0.1,0-0.1,0-0.2l4.1-9.2c0-0.1,0.1-0.1,0.1-0.1
				c0.1,0,0.1,0,0.2,0l2.6,1.2c0.1,0,0.1,0.1,0.1,0.2l0.3,4.6c0,0,0,0,0,0.1c0,0,0.1,0,0.1,0l1.6-3.7c0,0,0-0.1,0.1-0.1
				c0,0,0.1,0,0.1,0c0,0,0.1,0,0.1,0L133.3,33.2z"/>
			<path class="st109" d="M140.9,44.1c-0.1,0.5-0.2,0.9-0.5,1.3s-0.6,0.8-1,1c-0.4,0.3-0.8,0.5-1.2,0.6c-0.4,0.1-0.9,0.1-1.4,0.1
				c-0.5-0.1-0.9-0.2-1.3-0.5c0,0-0.1-0.1-0.1-0.1l-2.4-1.4l-2.5-1.5c0,0,0,0,0-0.1l5.4-8.9c0,0,0.1-0.1,0.1,0l1.2,0.7l3.3,2
				c0,0,0,0,0,0c0.8,0.5,1.2,1.1,1.4,2c0.2,0.9,0.1,1.7-0.4,2.4c-0.2,0.3-0.5,0.6-0.8,0.9c0,0,0,0,0,0c0,0,0,0,0,0
				C140.9,43.2,140.9,43.6,140.9,44.1z M136.9,44.2c0.1,0.1,0.3,0.1,0.5,0c0.2-0.1,0.3-0.2,0.4-0.4c0.1-0.1,0.1-0.2,0.1-0.3
				s0-0.3,0-0.4c0-0.1-0.1-0.2-0.2-0.3l-2.7-1.6c0,0,0,0-0.1,0l-0.8,1.3c0,0,0,0.1,0,0.1L136.9,44.2z M137,38.1l-0.7,1.2
				c0,0,0,0,0,0.1l2.1,1.3c0.1,0.1,0.3,0.1,0.5,0c0.2-0.1,0.3-0.2,0.4-0.3s0.1-0.3,0.1-0.5c0-0.2-0.1-0.3-0.2-0.4L137,38.1
				C137,38,137,38,137,38.1z"/>
			<path class="st109" d="M147.7,51.6c0.1,0.1,0.1,0.1,0,0.2l-1.6,2.2c-0.1,0.1-0.1,0.1-0.2,0l-5-3.8l-1.1-0.8
				c-0.1-0.1-0.1-0.1,0-0.2l6.2-8.1c0.1-0.1,0.1-0.1,0.2,0l2.3,1.7l3.7,2.8c0.1,0.1,0.1,0.1,0,0.2l-1.6,2.2c-0.1,0.1-0.1,0.1-0.2,0
				l-3.6-2.7c-0.1-0.1-0.1-0.1-0.2,0l-0.5,0.6c-0.1,0.1,0,0.1,0,0.2l1.6,1.2c0.1,0.1,0.1,0.1,0,0.2l-1.2,1.6c-0.1,0.1-0.1,0.1-0.2,0
				l-1.6-1.2c-0.1-0.1-0.2-0.1-0.2,0l-0.5,0.6c-0.1,0.1,0,0.1,0,0.2L147.7,51.6z"/>
			<path class="st109" d="M154.1,57.2c0.1,0.1,0.1,0.1,0,0.2l-1.8,2c-0.1,0.1-0.1,0.1-0.2,0l-3.8-3.4l-1-0.9c-0.1-0.1-0.1-0.1,0-0.2
				l6.8-7.6c0.1-0.1,0.1-0.1,0.2,0l2,1.8c0.1,0.1,0.1,0.1,0,0.2l-4.8,5.4c-0.1,0.1,0,0.1,0,0.2L154.1,57.2z"/>
			<path class="st109" d="M160.8,64.1c0.1,0.1,0.1,0.1,0,0.2l-1.9,1.9c-0.1,0.1-0.1,0.1-0.2,0l-4.3-4.5l-0.9-1
				c-0.1-0.1-0.1-0.1,0-0.2l7.3-7.1c0.1-0.1,0.1-0.1,0.2,0l2,2.1l3.2,3.3c0.1,0.1,0.1,0.2,0,0.2l-1.9,1.9c-0.1,0.1-0.1,0.1-0.2,0
				l-3.1-3.2c-0.1-0.1-0.1-0.1-0.2,0l-0.6,0.6c-0.1,0.1-0.1,0.1,0,0.2l1.4,1.5c0.1,0.1,0.1,0.1,0,0.2l-1.5,1.4
				c-0.1,0.1-0.1,0.1-0.2,0l-1.4-1.5c-0.1-0.1-0.1-0.1-0.2,0l-0.6,0.6c-0.1,0.1-0.1,0.1,0,0.2L160.8,64.1z"/>
			<path class="st109" d="M166.2,75.1C166.2,75.1,166.2,75.2,166.2,75.1C166.2,75.2,166.1,75.2,166.2,75.1l-2-2.3c0,0,0,0,0-0.1
				l1.1-1.6c0,0,0,0,0-0.1l-1.7-2c0,0,0,0-0.1,0l-1.8,0.8c0,0-0.1,0-0.1,0l-1.9-2.3c0,0,0,0,0,0c0,0,0,0,0,0l9.9-4.3
				c0,0,0.1,0,0.1,0l2.5,3c0,0,0,0,0,0.1L166.2,75.1z M167.1,68.5l0.9-1.3c0,0,0,0,0,0c0,0,0,0,0,0l-1.5,0.6c0,0,0,0,0,0
				c0,0,0,0,0,0L167.1,68.5C167.1,68.5,167.1,68.5,167.1,68.5C167.1,68.5,167.1,68.5,167.1,68.5z"/>
			<path class="st109" d="M179.9,77.1c0,0,0,0.1,0,0.1l-2.4,1.6c0,0-0.1,0-0.1,0l-2.5-3.9c0,0,0,0-0.1,0l-1.2,0.7
				c-0.1,0-0.1,0.1,0,0.2l1.2,1.9c0,0,0,0.1,0,0.1c0,0,0,0.1-0.1,0.1l-1.7,1.1c0,0-0.1,0-0.1,0c0,0-0.1,0-0.1-0.1l-1.2-1.9
				c-0.1-0.1-0.1-0.1-0.2,0l-2.8,1.8c0,0-0.1,0-0.1,0c0,0-0.1,0-0.1-0.1l-1.5-2.3c0,0,0-0.1,0-0.1c0,0,0-0.1,0.1-0.1l8.6-5.5
				c0,0,0.1,0,0.1,0c0,0,0.1,0,0.1,0.1l0.7,1.1L179.9,77.1z"/>
			<path class="st109" d="M175.9,91.8C175.8,91.8,175.8,91.8,175.9,91.8C175.8,91.8,175.8,91.8,175.9,91.8l-1.5-2.7c0,0,0,0,0-0.1
				l1.4-1.4c0,0,0,0,0-0.1l-1.2-2.4c0,0,0,0,0,0l-1.9,0.4c0,0-0.1,0-0.1,0l-1.4-2.7c0,0,0,0,0,0s0,0,0,0l10.6-2.1c0,0,0.1,0,0.1,0
				l1.8,3.5c0,0,0,0.1,0,0.1L175.9,91.8z M178.2,85.5l1.2-1.1c0,0,0,0,0,0c0,0,0,0,0,0l-1.6,0.3c0,0,0,0,0,0c0,0,0,0,0,0L178.2,85.5
				C178.1,85.5,178.2,85.5,178.2,85.5C178.2,85.5,178.2,85.5,178.2,85.5z"/>
			<path class="st109" d="M184.1,100c-0.3,0.3-0.7,0.6-1.2,0.7s-0.9,0.2-1.4,0.2c-0.5,0-0.9-0.1-1.3-0.3c-0.4-0.2-0.8-0.5-1.1-0.8
				c-0.3-0.3-0.6-0.7-0.7-1.2c0,0,0-0.1-0.1-0.1l-1-2.6l-1-2.8c0,0,0-0.1,0-0.1l9.7-3.6c0,0,0.1,0,0.1,0l0.5,1.4l1.3,3.6
				c0,0,0,0,0,0c0.3,0.8,0.3,1.6-0.1,2.5s-1,1.4-1.8,1.7c-0.4,0.1-0.8,0.2-1.2,0.2c0,0,0,0,0,0s0,0,0,0
				C184.7,99.3,184.5,99.7,184.1,100z M181,97.7c0,0.1,0.2,0.2,0.4,0.3c0.2,0,0.4,0,0.6,0c0.1,0,0.2-0.1,0.3-0.2
				c0.1-0.1,0.2-0.2,0.2-0.3c0.1-0.1,0.1-0.2,0-0.3l-1.1-2.9c0,0,0,0-0.1,0l-1.4,0.5c0,0-0.1,0,0,0.1L181,97.7z M184.8,92.9
				l-1.3,0.5c0,0,0,0,0,0.1l0.9,2.3c0.1,0.1,0.2,0.2,0.4,0.3c0.2,0,0.4,0,0.5,0c0.1-0.1,0.3-0.2,0.4-0.3s0.2-0.3,0.1-0.4L184.8,92.9
				C184.9,92.9,184.9,92.9,184.8,92.9z"/>
			<path class="st109" d="M184.6,109.1c0,0.1,0,0.1-0.1,0.2l-2.7,0.7c-0.1,0-0.1,0-0.2-0.1l-1.3-5l-0.3-1.3c0-0.1,0-0.1,0.1-0.2
				l9.9-2.6c0.1,0,0.1,0,0.2,0.1l0.7,2.7c0,0.1,0,0.1-0.1,0.2l-7,1.8c-0.1,0-0.1,0.1-0.1,0.1L184.6,109.1z"/>
			<path class="st109" d="M186.4,118.5c0,0.1,0,0.2-0.1,0.2l-2.7,0.5c-0.1,0-0.2,0-0.2-0.1l-1.1-6.1l-0.2-1.3c0-0.1,0-0.2,0.1-0.2
				l10-1.8c0.1,0,0.2,0,0.2,0.1l0.5,2.8l0.8,4.6c0,0.1,0,0.2-0.1,0.2l-2.7,0.5c-0.1,0-0.2,0-0.2-0.1l-0.8-4.4c0-0.1-0.1-0.1-0.2-0.1
				l-0.8,0.1c-0.1,0-0.1,0.1-0.1,0.2l0.4,2c0,0.1,0,0.2-0.1,0.2l-2,0.4c-0.1,0-0.2,0-0.2-0.1l-0.4-2c0-0.1-0.1-0.1-0.2-0.1l-0.8,0.1
				c-0.1,0-0.1,0.1-0.1,0.2L186.4,118.5z"/>
		</g>
		<path class="st107" d="M84,54.3c0,0,6.6-11,21.7-9c0,0-8.6,3.4-10.9,7.1C94.9,52.4,88.5,51.3,84,54.3z"/>
		<path class="st107" d="M33.9,89.1c0,0-13.5,7.7-1.9,26.3C32,115.4,29,98.8,33.9,89.1z"/>
		<path class="st107" d="M160.1,144.4c0,0-0.1,13.3,2.6,18.4c0,0,1.5-7.5,4.9-9.2c3.4-1.7,0-9.2,0-9.2H160.1z"/>
		<g>
			<path class="st111" d="M144.5,171.6C144.5,171.6,144.5,171.6,144.5,171.6C144.5,171.6,144.5,171.6,144.5,171.6l0,0.8
				c0,0.1,0,0.1-0.1,0.2c0,0.1-0.1,0.1-0.1,0.2c-0.1,0-0.1,0.1-0.2,0.1c-0.1,0-0.1,0-0.2,0c-0.1,0-0.1,0-0.2-0.1
				c-0.1,0-0.1-0.1-0.2-0.1s-0.1-0.1-0.1-0.2c0-0.1,0-0.1,0-0.2c0,0,0,0,0,0c0,0,0,0,0,0l0.4,0c0,0,0,0,0,0c0,0,0,0.1,0,0.1
				c0,0,0.1,0,0.1,0.1c0,0,0.1,0,0.1,0c0,0,0.1-0.1,0.1-0.1l0.1-0.8c0,0,0,0,0,0c0,0,0,0,0,0L144.5,171.6z"/>
			<path class="st111" d="M145.8,171.6C145.9,171.6,145.9,171.6,145.8,171.6l0,0.8c0,0.1,0,0.2,0,0.2c0,0.1-0.1,0.1-0.1,0.2
				s-0.1,0.1-0.2,0.1c-0.1,0-0.1,0-0.2,0s-0.1,0-0.2,0c-0.1,0-0.1-0.1-0.2-0.1c-0.1-0.1-0.1-0.1-0.1-0.2c0-0.1,0-0.1,0-0.2l0-0.8
				c0,0,0,0,0,0l0.4,0c0,0,0,0,0,0l0,0.8c0,0,0,0.1,0,0.1c0,0,0.1,0,0.1,0c0,0,0.1,0,0.1,0c0,0,0-0.1,0-0.1l0-0.8c0,0,0,0,0,0
				L145.8,171.6z"/>
			<path class="st111" d="M147,172.6C147,172.6,147,172.6,147,172.6l0,0.4c0,0,0,0,0,0l-0.7,0l-0.2,0c0,0,0,0,0,0l-0.1-1.4
				c0,0,0,0,0,0l0.4,0c0,0,0,0,0,0l0,1c0,0,0,0,0,0L147,172.6z"/>
			<path class="st111" d="M148.3,172.5C148.3,172.5,148.3,172.5,148.3,172.5l0.1,0.4c0,0,0,0,0,0l-0.8,0.1l-0.2,0c0,0,0,0,0,0
				l-0.1-1.4c0,0,0,0,0,0l0.4,0l0.6-0.1c0,0,0,0,0,0l0,0.4c0,0,0,0,0,0l-0.6,0.1c0,0,0,0,0,0l0,0.1c0,0,0,0,0,0l0.3,0c0,0,0,0,0,0
				l0,0.3c0,0,0,0,0,0l-0.3,0c0,0,0,0,0,0l0,0.1c0,0,0,0,0,0L148.3,172.5z"/>
			<path class="st111" d="M149.4,172.1c0,0.1,0.1,0.1,0.1,0.2c0,0.1,0,0.1,0,0.2c0,0.1-0.1,0.1-0.1,0.2c-0.1,0-0.1,0.1-0.2,0.1
				c-0.1,0-0.2,0-0.3-0.1s-0.2-0.2-0.2-0.3c0,0,0,0,0,0l0.4-0.1c0,0,0,0,0,0c0,0,0,0,0,0c0,0,0,0,0,0c0,0,0,0,0.1,0c0,0,0,0,0,0
				c0,0,0,0,0,0c0,0,0,0-0.1,0c-0.1,0-0.1,0-0.1,0c-0.1,0-0.2-0.1-0.2-0.1c-0.1-0.1-0.1-0.2-0.1-0.3c0-0.1,0-0.1,0-0.2
				c0-0.1,0-0.1,0.1-0.2s0.1-0.1,0.1-0.1c0.1,0,0.1-0.1,0.2-0.1c0.1,0,0.2,0,0.3,0.1c0.1,0.1,0.2,0.1,0.2,0.2c0,0,0,0,0,0l-0.4,0.1
				c0,0,0,0,0,0c0,0,0,0-0.1,0c0,0,0,0,0,0c0,0,0,0,0,0s0,0,0,0c0,0,0,0,0,0c0,0,0,0,0.1,0c0.1,0,0.1,0,0.2,0c0,0,0.1,0,0.1,0
				c0,0,0.1,0,0.1,0C149.4,172,149.4,172,149.4,172.1C149.4,172,149.4,172.1,149.4,172.1z"/>
			<path class="st111" d="M150.7,171.1C150.7,171.1,150.7,171.1,150.7,171.1C150.7,171.1,150.7,171.1,150.7,171.1l0.2,0.8
				c0,0.1,0,0.1,0,0.2c0,0.1,0,0.1-0.1,0.2c0,0.1-0.1,0.1-0.2,0.2c-0.1,0-0.1,0.1-0.2,0.1c-0.1,0-0.1,0-0.2,0c-0.1,0-0.1,0-0.2-0.1
				c-0.1,0-0.1-0.1-0.2-0.2c0-0.1-0.1-0.1-0.1-0.2c0,0,0,0,0,0c0,0,0,0,0,0l0.4-0.1c0,0,0,0,0,0c0,0,0,0.1,0.1,0.1c0,0,0.1,0,0.1,0
				c0,0,0.1,0,0.1-0.1c0,0,0-0.1,0-0.1l-0.2-0.8c0,0,0,0,0,0c0,0,0,0,0,0L150.7,171.1z"/>
			<path class="st111" d="M152.5,172C152.5,172,152.5,172,152.5,172C152.5,172,152.5,172,152.5,172l-0.4,0.1c0,0,0,0,0,0l-0.1-0.2
				c0,0,0,0,0,0l-0.3,0.1c0,0,0,0,0,0l0,0.3c0,0,0,0,0,0l-0.4,0.1c0,0,0,0,0,0c0,0,0,0,0,0l0-1.4c0,0,0,0,0,0l0.5-0.1c0,0,0,0,0,0
				L152.5,172z M151.7,171.5l-0.1-0.2c0,0,0,0,0,0c0,0,0,0,0,0l0,0.2c0,0,0,0,0,0c0,0,0,0,0,0L151.7,171.5
				C151.7,171.6,151.7,171.5,151.7,171.5C151.7,171.5,151.7,171.5,151.7,171.5z"/>
			<path class="st111" d="M153.4,171.1c0.1,0.1,0.2,0.1,0.2,0.2c0.1,0.1,0.1,0.2,0.2,0.3c0,0,0,0,0,0c0,0,0,0,0,0l-0.3,0.1
				c0,0,0,0,0,0c0-0.1-0.1-0.2-0.2-0.2c-0.1-0.1-0.2-0.1-0.3-0.1l0.1,0.4c0,0,0,0,0,0l-0.3,0.1c0,0,0,0,0,0l-0.5-1.3c0,0,0,0,0,0
				l0.2-0.1l0,0l0.3-0.1c0.1,0,0.1,0,0.2,0c0.1,0,0.1,0,0.2,0s0.1,0.1,0.1,0.1c0,0,0.1,0.1,0.1,0.2s0,0.1,0,0.2
				C153.4,170.9,153.4,171,153.4,171.1C153.4,171.1,153.4,171.1,153.4,171.1z M153,170.9C153,170.9,153,170.9,153,170.9
				c0-0.1,0-0.1,0-0.1c0,0-0.1,0-0.1,0c0,0,0,0,0,0c0,0,0,0,0,0l0.1,0.2c0,0,0,0,0,0C152.9,171,153,171,153,170.9z"/>
			<path class="st111" d="M154.8,169.6l-0.1,1.1c0,0,0,0,0,0s0,0,0,0l0.4-0.2c0,0,0,0,0,0l0.2,0.3c0,0,0,0,0,0l-1.1,0.5c0,0,0,0,0,0
				c0,0,0,0,0,0l0.1-1.1c0,0,0,0,0,0s0,0,0,0l-0.4,0.2c0,0,0,0,0,0l-0.2-0.3c0,0,0,0,0,0L154.8,169.6
				C154.7,169.6,154.7,169.6,154.8,169.6C154.8,169.6,154.8,169.6,154.8,169.6z"/>
		</g>
	</g>
</g>
</svg>
