<svg xmlns="http://www.w3.org/2000/svg" viewBox="0 0 227.49 225.69"><defs><style>.cls-1,.cls-3{fill:#fff;}.cls-2{fill:#ed1c24;}.cls-3,.cls-4,.cls-6,.cls-8{stroke:#003065;stroke-miterlimit:10;}.cls-3,.cls-4,.cls-6{stroke-width:1.69px;}.cls-4{fill:none;}.cls-5{font-size:10.72px;}.cls-10,.cls-11,.cls-5,.cls-7,.cls-8,.cls-9{fill:#003065;}.cls-5,.cls-7,.cls-9{font-family:AvenirNextCondensed-Medium, Avenir Next Condensed;}.cls-6{fill:#e2f0da;}.cls-7{font-size:27.09px;}.cls-8{stroke-width:0.56px;}.cls-10,.cls-9{font-size:15.8px;}.cls-10{font-family:AvenirNextCondensed-Heavy, Avenir Next Condensed;}</style></defs><title>Asset 2</title><g id="Layer_2" data-name="Layer 2"><g id="Layer_2-2" data-name="Layer 2"><rect class="cls-1" width="225.69" height="225.69"/><path class="cls-2" d="M23.25,119.76s-5.51-3.3-6,.51c0,0-.11,1.84,3,.68,0,0-3.1,1.16-2,2.47S22,124.3,23.25,119.76Z"/><path class="cls-2" d="M24.65,119.92s5.51,3.3,6-.51c0,0,.11-1.85-3-.68,0,0,3.1-1.17,2-2.47S25.94,115.37,24.65,119.92Z"/><path class="cls-2" d="M205.7,119.76s5.51-3.3,6,.51c0,0,.11,1.84-3,.68,0,0,3.1,1.16,2,2.47S207,124.3,205.7,119.76Z"/><path class="cls-2" d="M204.3,119.92s-5.51,3.3-6-.51c0,0-.11-1.85,3-.68,0,0-3.1-1.17-2-2.47S203,115.37,204.3,119.92Z"/><path class="cls-2" d="M29.7,63s2.61-8.91-4.16-11.33l-.26-.08S23,60.48,29.7,63Z"/><path class="cls-2" d="M29.52,62.79s4.74-8,11.12-4.66l.24.13S36,66,29.52,62.79Z"/><path class="cls-2" d="M43.86,159.63s-6.59-6.52-11.94-1.71l-.2.19S38.43,164.34,43.86,159.63Z"/><path class="cls-2" d="M43.57,159.68s-4.77-8,1.18-12l.23-.15S49.44,155.53,43.57,159.68Z"/><path class="cls-2" d="M185.35,159s6-7.11.73-12l-.21-.18S180.21,154,185.35,159Z"/><path class="cls-2" d="M185.28,158.72s7.54-5.4,12.06.19l.17.22S189.9,164.23,185.28,158.72Z"/><path class="cls-2" d="M200.44,65.59s-5.52-10.09-13.57-6.27l-.3.16S192.32,69.25,200.44,65.59Z"/><path class="cls-2" d="M200.07,65.55s-2.83-11.14,5.66-13.84l.33-.09S208.51,62.7,200.07,65.55Z"/><path class="cls-2" d="M51.33,42.39s-5,8.72-12.4,4.67-2.8-13-2.8-13,.85-2.93,4.2-1a2.33,2.33,0,0,1,.78,3.28S43,33.25,45.64,34.7s.22,4.55.22,4.55h0a4.24,4.24,0,0,1,4.51-.51A2.57,2.57,0,0,1,51.33,42.39Z"/><path class="cls-2" d="M178.52,42.39s5,8.72,12.4,4.67,2.79-13,2.79-13-.84-2.93-4.19-1a2.34,2.34,0,0,0-.79,3.28s-1.86-3.12-4.52-1.67-.22,4.55-.22,4.55h0a4.25,4.25,0,0,0-4.51-.51A2.57,2.57,0,0,0,178.52,42.39Z"/><path class="cls-3" d="M183.2,98.71A68.59,68.59,0,0,0,54.82,65.12"/><polyline class="cls-4" points="114.62 35.92 114.62 41.66 114.62 50.41"/><text class="cls-5" transform="matrix(0.66, -0.75, 0.75, 0.66, 60.3, 53.14)">L</text><text class="cls-5" transform="matrix(0.72, -0.69, 0.69, 0.72, 64.03, 48.95)">A</text><text class="cls-5" transform="translate(69.02 44.3) rotate(-38.1)">K</text><text class="cls-5" transform="translate(74.54 40.09) rotate(-32.79)">E</text><text class="cls-5" transform="translate(79.81 36.81) rotate(-28.77)"> </text><text class="cls-5" transform="translate(83.03 35.03) rotate(-24.24)">G</text><text class="cls-5" transform="matrix(0.95, -0.32, 0.32, 0.95, 89.82, 32.09)">E</text><text class="cls-5" transform="translate(95.66 30.16) rotate(-13.02)">N</text><text class="cls-5" transform="matrix(0.99, -0.13, 0.13, 0.99, 103.22, 28.53)">E</text><text class="cls-5" transform="matrix(1, -0.04, 0.04, 1, 109.36, 27.8)">V</text><text class="cls-5" transform="matrix(1, 0.05, -0.05, 1, 115.95, 27.62)">A</text><text class="cls-5" transform="translate(122.59 28.09) rotate(7.24)"> </text><text class="cls-5" transform="translate(126.28 28.6) rotate(10.44)">∙</text><text class="cls-5" transform="translate(130.3 29.4) rotate(13.62)"> </text><text class="cls-5" transform="translate(133.86 30.26) rotate(17.92)">C</text><text class="cls-5" transform="matrix(0.91, 0.41, -0.41, 0.91, 140.32, 32.41)">H</text><text class="cls-5" transform="translate(147.43 35.72) rotate(28.84)">I</text><text class="cls-5" transform="translate(151.17 37.8) rotate(33.35)">C</text><text class="cls-5" transform="translate(156.71 41.53) rotate(38.76)">A</text><text class="cls-5" transform="translate(161.94 45.8) rotate(44.45)">G</text><text class="cls-5" transform="translate(167.16 51.03) rotate(50.57)">O</text><circle class="cls-4" cx="114.62" cy="98.71" r="82.56"/><path class="cls-4" d="M38.61,46.86a92.62,92.62,0,1,0,151.92-.13"/><path class="cls-3" d="M51,176.39s2.27-2.68,7.27-3.1"/><path class="cls-2" d="M44.38,172.55S50.76,170,53,175.37s-4.05,8.09-4.05,8.09-1.7,1.2-2.68-1.25a1.59,1.59,0,0,1,1-2.08s-2.32.86-3.12-1S46,176.56,46,176.56h0a2.88,2.88,0,0,1-2.62-1.66A1.74,1.74,0,0,1,44.38,172.55Z"/><path class="cls-3" d="M34,136.2s-1.91-.55-4,2.19"/><path class="cls-2" d="M34.17,131s-3.78,2.77-1.51,6,6.16.61,6.16.61,1.31-.55.25-2a1.1,1.1,0,0,0-1.57-.19s1.35-1,.54-2.19-2.13.14-2.13.14h0a2,2,0,0,0,0-2.12A1.2,1.2,0,0,0,34.17,131Z"/><path class="cls-3" d="M26.45,138.6s1-1.27,4.14,0"/><path class="cls-2" d="M23.62,134.23s4.67.42,4.39,4.36-5,3.7-5,3.7-1.41.21-1.25-1.59a1.09,1.09,0,0,1,1.24-1s-1.68-.19-1.58-1.6,1.89-1,1.89-1h0a2,2,0,0,1-1.09-1.82A1.2,1.2,0,0,1,23.62,134.23Z"/><path class="cls-3" d="M202.89,138.79s-.95-1.74-4.34-1.26"/><path class="cls-2" d="M206.69,135.23s-4.63-.71-5.3,3.18,3.92,4.78,3.92,4.78,1.32.54,1.59-1.24a1.09,1.09,0,0,0-1-1.24s1.68.23,1.92-1.17-1.6-1.4-1.6-1.4h0a2,2,0,0,0,1.5-1.5A1.21,1.21,0,0,0,206.69,135.23Z"/><path class="cls-3" d="M195.87,135.15s1.56-.22,2.91,2.93"/><path class="cls-2" d="M197,130.06s3,3.59,0,6.18-6.12-.89-6.12-.89-1.14-.85.24-2a1.08,1.08,0,0,1,1.56.19s-1.06-1.32,0-2.25,2,.65,2,.65h0a2,2,0,0,1,.51-2.06A1.19,1.19,0,0,1,197,130.06Z"/><path class="cls-3" d="M178.26,176.39s-2.28-2.68-7.28-3.1"/><path class="cls-2" d="M184.83,172.55s-6.37-2.52-8.6,2.82,4.05,8.09,4.05,8.09,1.7,1.2,2.67-1.25a1.59,1.59,0,0,0-1-2.08s2.33.86,3.13-1-1.83-2.52-1.83-2.52h0a2.89,2.89,0,0,0,2.62-1.66A1.75,1.75,0,0,0,184.83,172.55Z"/><polyline class="cls-6" points="204.9 77.02 225.69 85.3 212.9 94.02 221 107.97 204.9 101.87"/><polyline class="cls-6" points="23.86 77.02 3.07 85.3 15.87 94.02 7.76 107.97 23.86 101.87"/><path class="cls-6" d="M20.53,72.61s68.63-35.5,188.17,0v33.84c-119.54-35.5-188.17,0-188.17,0Z"/><text class="cls-7" transform="translate(68.51 85.96) rotate(-7.14)">T</text><text class="cls-7" transform="translate(85.29 84.06) rotate(-3)">R</text><text class="cls-7" transform="translate(105.8 83.27) rotate(1)">Y</text><text class="cls-7" transform="translate(124.84 83.82) rotate(4.7)">B</text><text class="cls-7" transform="matrix(0.99, 0.14, -0.14, 0.99, 145.51, 85.77)">E</text><g id="_5OoleC" data-name="5OoleC"><path class="cls-8" d="M192.07,79.51c.21-1-2-.57-2.26-.34-.58.49-.29,1.55-.47,2.18-.64,2.24-1.44.48-2.82-.68-2-1.68-3.44-1.91-6.09-1.34-2,.43-2.52.94-4.53.3a11.91,11.91,0,0,1-3.48-1.72,8.59,8.59,0,0,1-3.2-3.13c-.68-1.19-1.41-2.72-2.89-2.26s-1.16,1.7-.71,2.85c.28.69.85,1.12.88,2s-.42.84-.69,1.54c-.67,1.77-.25,2.27,1.19,3.1s2.92,2.6,4.65,2.32a3,3,0,0,0,1.27-.51c.28-.16.43-.58.71-.77s.75.06,1.06-.13c1.95-1.15,1.18-.92,3.35.49a7.87,7.87,0,0,0,1.7.83c1.14.43,2.56.07,3.55.43,1.54.55,1.23,1.88,2.54,2.91s3.59,1.17,5.32,1.64c1.55.41,3.15.43,4.64.83s3.94,2.07,4.06-.9c.07-1.6-1.75-4-2.91-4.89a4.69,4.69,0,0,0-2.44-1.15c-.37,0-1.64.81-1.89.69C192,83.46,191.94,80.17,192.07,79.51Z"/><path class="cls-8" d="M192,80.09c.33-1.85-1.9-1.41-2.47-.24-.45.92.43,2.7-1,2.7-.74,0-2.22-2.17-2.84-2.63-1.68-1.23-3.55-.9-5.51-.45a10.44,10.44,0,0,1-10.26-3.38c-.9-1-1.26-3.57-3-3.65-2.79-.12-1.11,2.7-.69,3.88.67,2-.29,1.76-.71,3.34-.47,1.79,1.17,2,2.36,2.75,2.22,1.49,2.82,2.31,5.23,1.14.79-.38,2.05-1.49,3-1.52,1.36,0,3.31,2.27,4.87,2.58,2,.4,2.66-.48,3.8,1.37,2.28,3.69,7.53,3,11.28,4.26,1.68.55,4,1.52,3.81-1.43-.11-1.58-1.72-3.54-2.87-4.55a3.84,3.84,0,0,0-2.84-1.21c-.69,0-1,.85-1.65.38A15.55,15.55,0,0,1,192,80.09Z"/></g><g id="_5OoleC-2" data-name="5OoleC"><path class="cls-8" d="M34.84,83.76c-.24.12-1.51-.7-1.88-.69a4.68,4.68,0,0,0-2.45,1.15c-1.16.94-3,3.29-2.91,4.89.12,3,2.56,1.3,4.06.9s3.09-.42,4.64-.83c1.74-.47,3.9-.53,5.32-1.64s1-2.36,2.54-2.91c1-.36,2.42,0,3.56-.43a7.8,7.8,0,0,0,1.69-.83c2.18-1.41,1.4-1.64,3.35-.49.32.19.72-.1,1.06.13s.43.61.71.77a3.06,3.06,0,0,0,1.27.51c1.73.28,3.23-1.51,4.66-2.32s1.86-1.33,1.18-3.1c-.27-.7-.72-.58-.68-1.54s.59-1.27.87-2c.46-1.15.79-2.4-.7-2.85s-2.21,1.07-2.89,2.26A8.62,8.62,0,0,1,55,77.91a11.91,11.91,0,0,1-3.48,1.72c-2,.64-2.53.13-4.53-.3-2.65-.57-4.08-.34-6.09,1.34-1.38,1.16-2.18,2.92-2.81.68-.18-.63.1-1.69-.47-2.18-.26-.23-2.47-.67-2.27.34C35.52,80.17,35.46,83.46,34.84,83.76Z"/><path class="cls-8" d="M35.49,80.09c-.33-1.85,1.9-1.41,2.48-.24.45.92-.44,2.7,1,2.7.75,0,2.22-2.17,2.85-2.63,1.67-1.23,3.54-.9,5.5-.45a10.43,10.43,0,0,0,10.26-3.38c.9-1,1.26-3.57,3-3.65,2.79-.12,1.11,2.7.7,3.88-.68,2,.28,1.76.7,3.34.47,1.79-1.16,2-2.36,2.75-2.21,1.49-2.82,2.31-5.22,1.14-.79-.38-2.06-1.49-3-1.52-1.37,0-3.32,2.27-4.87,2.58-2,.4-2.66-.48-3.81,1.37-2.28,3.69-7.53,3-11.28,4.26-1.67.55-4,1.52-3.81-1.43.12-1.58,1.73-3.54,2.88-4.55a3.81,3.81,0,0,1,2.84-1.21c.69,0,1,.85,1.64.38A15.55,15.55,0,0,0,35.49,80.09Z"/></g><path class="cls-6" d="M157.81,167.19l7.33,23.64c-53.77,22.49-101.06,0-101.06,0l7.34-23.64S102.62,182.47,157.81,167.19Z"/><text class="cls-9" transform="translate(77.24 188.52) rotate(12.71)">S</text><text class="cls-9" transform="translate(88.83 190.86) rotate(7.55)">T</text><text class="cls-9" transform="matrix(1, 0.05, -0.05, 1, 99.15, 192.09)">O</text><text class="cls-10" transform="translate(113.12 192.57) rotate(-0.89)">∙</text><text class="cls-9" transform="matrix(1, -0.07, 0.07, 1, 122.57, 192.31)">L</text><text class="cls-9" transform="translate(133.16 191.48) rotate(-7.05)">A</text><text class="cls-9" transform="matrix(0.99, -0.17, 0.17, 0.99, 145.17, 189.86)">T</text><polyline class="cls-4" points="147.24 42.21 144.53 46.9 140.41 54.04"/><polyline class="cls-4" points="82.02 42.25 84.77 47.01 88.95 54.25"/><path class="cls-3" d="M133.93,118.86c1,9.88-8.73,18-19.49,18s-19.5-8.05-19.5-18c0-1.71.68-17.35.68-17.35,1.63,1.58,6.45,3.57,9.2,4.49,4.58,1.53,6.09.14,9.65.14s5.06.49,7.72.67c2.88.19,8.22-4.09,10.25-6C132.44,100.85,133.53,115,133.93,118.86Z"/><polygon class="cls-3" points="109.08 115.66 114.81 130.54 119.98 115.66 109.08 115.66"/><circle class="cls-3" cx="125.54" cy="117.28" r="6.35"/><circle class="cls-11" cx="125.54" cy="117.28" r="3.89"/><circle class="cls-3" cx="103.49" cy="117.28" r="6.35"/><circle class="cls-11" cx="103.49" cy="117.28" r="3.89"/><path class="cls-3" d="M92.67,172.57c-3.2-18.25,6.58-40.9,6.58-40.9s-20.12-23.33-51.72-26.2c0,0,12.06,7.35,14.11,14,0,0-11.29-7.21-22-2.48,0,0,15.45,10.95,18.62,14.63,0,0-5.64-3.66-13.54,0,0,0,15.22,28.48,48,34.13"/><path class="cls-3" d="M136.56,172.57c3.21-18.25-6.58-40.9-6.58-40.9s20.12-23.33,51.72-26.2c0,0-12.06,7.35-14.1,14,0,0,11.28-7.21,22-2.48,0,0-15.44,10.95-18.62,14.63,0,0,5.64-3.66,13.55,0,0,0-15.23,28.48-48,34.13"/><path class="cls-3" d="M121.92,141.31a3.68,3.68,0,1,0,7.36,0"/><path class="cls-3" d="M110.79,141.31a3.68,3.68,0,1,0,7.36,0"/><path class="cls-3" d="M99.66,141.31a3.69,3.69,0,1,0,7.37,0"/><path class="cls-3" d="M116.35,150.89a3.69,3.69,0,0,0,7.37,0"/><path class="cls-3" d="M105.23,150.89a3.68,3.68,0,0,0,7.36,0"/><path class="cls-3" d="M66,121.69s11.79,12.42,19.4,14.75"/><path class="cls-3" d="M65.89,137.72s12.19,11,19.53,13.17"/><path class="cls-3" d="M161.22,121.69s-11.79,12.42-19.41,14.75"/><path class="cls-3" d="M161.35,137.72s-12.19,11-19.54,13.17"/></g></g></svg>